<?xml version="1.0" encoding="UTF-8" standalone="no"?>
<!-- Created with Inkscape (http://www.inkscape.org/) -->

<svg
   width="54.703537mm"
   height="52.11879mm"
   viewBox="0 0 54.703537 52.11879"
   version="1.1"
   id="svg5"
   xml:space="preserve"
   xmlns:inkscape="http://www.inkscape.org/namespaces/inkscape"
   xmlns:sodipodi="http://sodipodi.sourceforge.net/DTD/sodipodi-0.dtd"
   xmlns="http://www.w3.org/2000/svg"
   xmlns:svg="http://www.w3.org/2000/svg"><sodipodi:namedview
     id="namedview7"
     pagecolor="#ffffff"
     bordercolor="#000000"
     borderopacity="0.25"
     inkscape:showpageshadow="2"
     inkscape:pageopacity="0.0"
     inkscape:pagecheckerboard="0"
     inkscape:deskcolor="#d1d1d1"
     inkscape:document-units="mm"
     showgrid="false"
     inkscape:zoom="0.78127806"
     inkscape:cx="318.70855"
     inkscape:cy="459.5035"
     inkscape:window-width="1920"
     inkscape:window-height="1029"
     inkscape:window-x="0"
     inkscape:window-y="27"
     inkscape:window-maximized="1"
     inkscape:current-layer="layer1" /><defs
     id="defs2" /><g
     inkscape:label="Layer 1"
     inkscape:groupmode="layer"
     id="layer1"
     transform="translate(-223.51616,-47.499007)"><path
       id="path1681"
       style="fill:#ffffff;stroke-width:0.264583"
       d="m 261.18997,98.927925 c -0.11461,-0.45667 -0.0492,-0.76832 0.1934,-0.92199 0.51962,-0.32908 0.62387,-0.30381 1.15137,0.27908 0.60189,0.66508 0.34795,1.33277 -0.5069,1.33277 -0.49567,0 -0.70876,-0.17544 -0.83787,-0.68986 z m -13.04882,-1.71493 c -2.12102,-0.41601 -5.40099,-1.61028 -7.81758,-2.84645 -5.1108,-2.61436 -8.43849,-5.90704 -10.60303,-10.49147 -3.7402,-7.92164 -3.19926,-16.61498 1.53668,-24.69596 2.54114,-4.33597 6.49522,-8.03943 11.20602,-10.49577 1.85834,-0.96899 4.1249,-1.48227 4.42209,-1.00142 0.0843,0.13646 -0.88242,0.76135 -2.14833,1.38865 -5.47062,2.71087 -10.02121,6.85577 -12.61097,11.48669 -2.84022,5.07879 -3.94482,11.61211 -2.89738,17.13702 1.13994,6.01282 4.19814,10.57227 9.37022,13.96999 2.77603,1.82367 5.66209,2.98463 9.27274,3.73008 3.73494,0.77111 9.95513,0.63778 12.81997,-0.2748 9.41805,-3.00008 15.46724,-10.98911 15.93203,-21.0411 0.2995,-6.47726 -1.45374,-11.46849 -5.59342,-15.92363 -2.79622,-3.00931 -5.76455,-4.85224 -9.59531,-5.95738 -1.741,-0.50226 -2.67007,-0.59291 -5.90268,-0.57586 -4.68404,0.0247 -6.1541,0.36612 -10.31875,2.3966 -2.66491,1.29929 -3.30597,1.75021 -5.16302,3.63165 -2.80845,2.84533 -4.63684,5.646 -5.54224,8.48944 -0.3954,1.24172 -0.8311,2.25768 -0.96825,2.25768 -0.94257,0 -0.17715,-3.26093 1.56947,-6.68643 0.86434,-1.69514 1.78365,-2.95849 3.41007,-4.68622 4.77186,-5.06913 9.61044,-7.17129 16.61585,-7.21891 3.83054,-0.026 5.81368,0.34243 8.89097,1.65194 3.62381,1.54207 7.84023,5.08913 10.35834,8.71396 3.04216,4.37921 4.34321,9.91086 3.65534,15.54141 -0.55256,4.52293 -1.42835,7.08299 -3.62653,10.60075 -3.5746,5.72047 -9.24675,9.65497 -15.57396,10.80291 -2.31409,0.41985 -8.7539,0.47802 -10.69834,0.0966 z m 0.98481,-4.2049 c -6.21511,-1.57618 -11.54824,-6.00194 -13.83898,-11.48444 -0.66478,-1.59104 -0.0438,-1.08131 1.56117,1.2814 3.87284,5.70144 9.24609,8.95723 15.37676,9.31718 3.14082,0.18441 5.59121,-0.34992 8.84059,-1.92774 2.09439,-1.01698 2.91072,-1.60587 4.68355,-3.37866 1.18088,-1.18086 2.53055,-2.77209 2.99926,-3.53607 0.86292,-1.40653 1.19732,-1.65785 1.40823,-1.05833 0.19302,0.54866 -0.26021,1.44592 -1.74286,3.45034 -2.53996,3.43381 -5.35995,5.51052 -9.47632,6.97859 -2.67656,0.95458 -6.85691,1.10699 -9.8114,0.35773 z m -0.5653,-2.92084 c -4.18415,-1.05602 -8.04744,-3.63481 -10.5954,-7.07253 -2.6704,-3.60291 -3.5465,-7.29624 -3.03959,-12.81374 0.24349,-2.6503 0.40217,-3.19917 1.63013,-5.63842 3.24361,-6.44321 9.18451,-10.15135 16.46286,-10.27564 3.21927,-0.055 5.26572,0.51657 8.57685,2.3954 2.98058,1.69127 4.49617,3.11073 6.38872,5.98348 3.49001,5.2976 4.09516,11.43117 1.67273,16.95421 -1.41566,3.22763 -4.3851,6.79402 -6.86868,8.2495 -1.35696,0.79523 -4.93401,2.20744 -6.06545,2.39463 -2.47516,0.40949 -6.1548,0.32975 -8.16217,-0.17689 z m 7.70921,-5.31331 c 3.71156,-0.79877 6.93481,-3.88153 8.26707,-7.90674 0.77254,-2.33408 0.77345,-6.05259 0.002,-8.47025 -0.89393,-2.80181 -3.06275,-5.57391 -5.34885,-6.83665 -2.48324,-1.37164 -3.92697,-1.70084 -6.92281,-1.57852 -2.50513,0.10228 -2.8444,0.18512 -4.97937,1.21582 -2.04564,0.98755 -2.43499,1.29781 -3.6343,2.89593 -2.40455,3.20415 -3.30102,6.40142 -2.88673,10.2956 0.27711,2.6047 1.52747,5.36183 3.28249,7.23809 1.3635,1.45769 4.18564,3.01863 6.19107,3.42433 1.27028,0.25697 4.1646,0.12371 6.02934,-0.27761 z m -6.82308,-5.18069 c -2.41372,-1.23615 -3.69974,-3.621 -3.70269,-6.86644 -0.003,-3.23165 1.43288,-5.81117 3.90183,-7.00981 1.69861,-0.82465 4.48814,-0.84089 6.03661,-0.0351 1.20058,0.62473 3.02466,2.50192 3.02466,3.11272 0,0.60288 -2.29616,0.51734 -3.57187,-0.13305 -2.2775,-1.16114 -5.06788,-0.38715 -6.04761,1.67747 -0.59509,1.25407 -0.55424,3.7221 0.0849,5.13008 0.69368,1.52811 1.83852,2.18604 3.80604,2.18729 2.18941,0.001 3.70766,-0.76728 3.91745,-1.98338 0.086,-0.49819 -0.0296,-0.52365 -1.97403,-0.43495 l -2.06532,0.0942 0.0809,-1.41714 0.081,-1.41714 2.24896,-0.0821 c 1.23693,-0.0451 2.75497,-0.008 3.37344,0.0824 l 1.12447,0.1644 v 1.9093 c 0,2.33536 -0.19509,2.64615 -2.71342,4.32277 -1.83794,1.22364 -2.00385,1.27958 -4.03345,1.35994 -1.89218,0.0749 -2.271,0.005 -3.57187,-0.66146 z m -25.61167,4.62578 c -0.52804,-0.52804 -0.37645,-1.05059 0.27781,-0.95767 0.38258,0.0543 0.62552,0.29728 0.67986,0.67986 0.0929,0.65426 -0.42964,0.80585 -0.95767,0.27781 z m 0.72438,-15.70961 c -0.30956,-0.37299 -0.28915,-0.48645 0.14451,-0.80355 0.57872,-0.42318 1.02631,-0.13371 0.88894,0.5749 -0.12503,0.64496 -0.60062,0.75018 -1.03345,0.22865 z m 49.40534,-10.60761 c -0.097,-0.097 -0.17639,-0.40295 -0.17639,-0.67986 0,-0.75509 1.16473,-0.51675 1.27517,0.26093 0.0623,0.43842 -0.0481,0.59532 -0.41892,0.59532 -0.27691,0 -0.58285,-0.0794 -0.67986,-0.17639 z m -42.37405,-2.72856 c -0.25878,-0.41871 0.3898,-1.3679 0.87133,-1.27516 0.55921,0.10769 0.7486,1.00045 0.2758,1.30008 -0.47709,0.30235 -0.95124,0.29205 -1.14713,-0.0249 z m 39.0833,-2.96108 c -0.48702,-0.48701 -0.39333,-0.95586 0.23058,-1.15388 0.66823,-0.21209 1.11624,0.1678 0.98733,0.8372 -0.11393,0.59158 -0.77193,0.76267 -1.21791,0.31668 z" /></g></svg>
